<?xml version="1.0" encoding="UTF-8" standalone="no"?>
<svg
   xmlns:dc="http://purl.org/dc/elements/1.1/"
   xmlns:cc="http://creativecommons.org/ns#"
   xmlns:rdf="http://www.w3.org/1999/02/22-rdf-syntax-ns#"
   xmlns:svg="http://www.w3.org/2000/svg"
   xmlns="http://www.w3.org/2000/svg"
   xmlns:sodipodi="http://sodipodi.sourceforge.net/DTD/sodipodi-0.dtd"
   xmlns:inkscape="http://www.inkscape.org/namespaces/inkscape"
   width="54"
   height="54"
   viewBox="0 0 14.28751 14.287506"
   version="1.1"
   id="svg31"
   inkscape:version="1.0rc1 (unknown)"
   sodipodi:docname="logo-no-text.svg">
  <defs
     id="defs25" />
  <sodipodi:namedview
     id="base"
     pagecolor="#ffffff"
     bordercolor="#666666"
     borderopacity="1.0"
     inkscape:pageopacity="0.0"
     inkscape:pageshadow="2"
     inkscape:zoom="5.6665271"
     inkscape:cx="55.552461"
     inkscape:cy="62.665609"
     inkscape:document-units="mm"
     inkscape:current-layer="layer1"
     inkscape:document-rotation="0"
     showgrid="false"
     inkscape:snap-page="false"
     inkscape:window-width="1530"
     inkscape:window-height="974"
     inkscape:window-x="26"
     inkscape:window-y="23"
     inkscape:window-maximized="0"
     units="px" />
  <metadata
     id="metadata28">
    <rdf:RDF>
      <cc:Work
         rdf:about="">
        <dc:format>image/svg+xml</dc:format>
        <dc:type
           rdf:resource="http://purl.org/dc/dcmitype/StillImage" />
        <dc:title></dc:title>
      </cc:Work>
    </rdf:RDF>
  </metadata>
  <g
     inkscape:label="Layer 1"
     inkscape:groupmode="layer"
     id="layer1">
    <path
       inkscape:export-ydpi="101"
       inkscape:export-xdpi="101"
       inkscape:export-filename="/home/patchon/projects/airspace-hugo/redlin/static/images/logo.png"
       style="isolation:isolate;fill:#000000;stroke-width:0.150997"
       inkscape:connector-curvature="0"
       id="path110-5"
       fill="rgb(55,53,53)"
       d="M 12.350561,0.47623337 H 2.0348691 c -0.9045782,0 -1.6380406,0.68726373 -1.6380406,1.53500973 v 9.6659759 c 0,0.847759 0.7334624,1.535021 1.6380406,1.535021 H 12.350561 c 0.904742,0 1.638201,-0.687262 1.638201,-1.535021 V 2.0112431 c 0,-0.847746 -0.733459,-1.53500973 -1.638201,-1.53500973 z" />
    <path
       inkscape:export-ydpi="101"
       inkscape:export-xdpi="101"
       inkscape:export-filename="/home/patchon/projects/airspace-hugo/redlin/static/images/logo.png"
       style="isolation:isolate;stroke-width:0.150997"
       inkscape:connector-curvature="0"
       id="path112-9"
       fill="#fefefe"
       d="m 3.7170515,12.451012 c 0.023075,-0.551331 0.1990411,-1.058514 0.5149154,-1.524485 0.028405,-0.04169 0.061624,-0.081 0.096252,-0.118546 0.1594213,-0.173203 0.2573796,-0.19951 0.4876205,-0.110339 0.499634,0.193369 0.946073,0.473425 1.384088,0.764582 0.226807,0.150694 0.456889,0.300368 0.61444,0.523861 0.04945,0.07011 0.116989,0.08168 0.207462,0.07057 0.116045,-0.01438 0.236328,0.0033 0.353784,-0.0046 0.06535,-0.0046 0.156301,-0.01665 0.188437,-0.05778 0.233513,-0.29873 0.556101,-0.497514 0.878681,-0.691471 0.33959,-0.204051 0.689319,-0.395664 1.047782,-0.568879 0.315875,-0.152732 0.4444075,-0.119845 0.6359636,0.152312 0.723169,1.027385 0.720668,2.113825 0.0046,3.145446 -0.02869,0.04137 -0.06599,0.0777 -0.100626,0.115334 -0.1125156,0.122374 -0.2482306,0.16081 -0.4096796,0.09474 -0.115279,-0.04721 -0.236632,-0.08618 -0.342084,-0.148465 -0.442441,-0.261491 -0.884201,-0.524292 -1.316444,-0.800111 -0.134155,-0.08564 -0.246153,-0.206963 -0.351915,-0.324769 -0.07645,-0.08541 -0.14476,-0.12628 -0.26986,-0.101163 -0.10031,0.02018 -0.211989,0.01483 -0.313849,-0.0033 -0.10077,-0.01778 -0.157861,0.01462 -0.223688,0.0785 -0.151152,0.146385 -0.300589,0.298247 -0.472023,0.421898 -0.436609,0.314966 -0.899895,0.59356 -1.399996,0.813099 -0.3585062,0.157363 -0.4779952,0.1293 -0.6948199,-0.181003 -0.3267946,-0.467285 -0.4993184,-0.983247 -0.5191299,-1.54525 z" />
    <path
       inkscape:export-ydpi="101"
       inkscape:export-xdpi="101"
       inkscape:export-filename="/home/patchon/projects/airspace-hugo/redlin/static/images/logo.png"
       style="isolation:isolate;stroke-width:0.150997"
       inkscape:connector-curvature="0"
       id="path116-2"
       fill="#fefefe"
       d="m 12.276,2.9160062 v 0 c -1.200802,-1.1251736 -3.1657966,-1.1251736 -4.3665966,0 L 7.1927924,3.5874786 6.4761774,2.9160062 c -1.200797,-1.1251736 -3.1657866,-1.1251736 -4.3665934,0 v 0 c -1.2007976,1.1251735 -1.2007976,2.9663969 0,4.0915696 l 2.8678554,2.6872238 c 0.0106,0.01023 0.02044,0.02072 0.03119,0.03081 v 0 c 0.600708,0.5627264 1.392351,0.8854584 2.184155,0.8851634 0.791637,2.04e-4 1.583441,-0.322437 2.184155,-0.8851644 v 0 c 0.01082,-0.01025 0.02061,-0.02062 0.03119,-0.03081 L 12.275975,7.0075758 c 1.200804,-1.1251727 1.200804,-2.9663963 0,-4.0915697 z" />
    <path
       inkscape:export-ydpi="101"
       inkscape:export-xdpi="101"
       inkscape:export-filename="/home/patchon/projects/airspace-hugo/redlin/static/images/logo.png"
       style="isolation:isolate;stroke-width:0.150997"
       inkscape:connector-curvature="0"
       id="path120-7"
       fill="#dfa133"
       d="M 7.1927924,8.1079035 5.6988854,7.1212927 7.1927924,6.3415079 8.6866974,7.1212927 Z" />
    <path
       inkscape:export-ydpi="101"
       inkscape:export-xdpi="101"
       inkscape:export-filename="/home/patchon/projects/airspace-hugo/redlin/static/images/logo.png"
       style="isolation:isolate;stroke-width:0.150997"
       inkscape:connector-curvature="0"
       id="path122-8"
       fill="#fdbf32"
       d="M 8.6866974,7.1212927 7.1927924,6.3415079 5.6988854,7.1212927 Z" />
    <path
       inkscape:export-ydpi="101"
       inkscape:export-xdpi="101"
       inkscape:export-filename="/home/patchon/projects/airspace-hugo/redlin/static/images/logo.png"
       style="isolation:isolate;fill:#cc0000;fill-opacity:1;stroke-width:0.150997"
       inkscape:connector-curvature="0"
       id="path114-9"
       fill="rgb(235,235,236)"
       d="m 9.7819304,13.856784 c -0.06959,-0.02673 -0.135087,-0.052 -0.178449,-0.07748 -0.444101,-0.262519 -0.877596,-0.520496 -1.302822,-0.791773 -0.08157,-0.05222 -0.16831,-0.145437 -0.257227,-0.244688 -0.04398,-0.04894 -0.154894,-0.172466 -0.342706,-0.231805 0.106699,-0.03047 0.227587,-0.08825 0.315724,-0.200834 0.189681,-0.242491 0.489337,-0.422707 0.753894,-0.581591 0.341146,-0.204913 0.680736,-0.389376 1.009402,-0.548114 0.0076,-0.0033 0.01441,-0.0068 0.02106,-0.01024 0.0032,0.0046 0.0066,0.0091 0.01003,0.01394 0.6188086,0.87932 0.6198966,1.776039 0.0032,2.664863 -0.0039,0.0056 -0.0082,0.01024 -0.01247,0.01495 -0.0065,-0.0023 -0.01276,-0.0046 -0.01919,-0.008 z M 4.7026253,13.813054 C 4.4246539,13.415638 4.2798951,12.989126 4.2603992,12.509562 c 0.022149,-0.463196 0.166597,-0.885461 0.4414449,-1.290629 0.00913,-0.01359 0.021666,-0.02934 0.038053,-0.04792 0.4606383,0.182267 0.8768163,0.448435 1.2641313,0.70598 l 0.01796,0.01199 c 0.199511,0.132421 0.371723,0.246874 0.476859,0.395959 0.07892,0.111701 0.186095,0.191183 0.312292,0.234152 -0.142731,0.05222 -0.232424,0.139149 -0.269864,0.175548 l -0.05476,0.05335 c -0.124936,0.121752 -0.242875,0.236783 -0.366108,0.325656 -0.445657,0.3217 -0.875096,0.57135 -1.313111,0.763564 -0.02653,0.01169 -0.048683,0.02095 -0.066921,0.02808 -0.010597,-0.01407 -0.023254,-0.03128 -0.037738,-0.05224 z" />
    <path
       inkscape:export-ydpi="101"
       inkscape:export-xdpi="101"
       inkscape:export-filename="/home/patchon/projects/airspace-hugo/redlin/static/images/logo.png"
       style="isolation:isolate;stroke-width:0.258799"
       d="m 10.427971,5.3278203 c 0,0.3582569 -0.311295,0.6487693 -0.6952046,0.6487693 -0.38417,0 -0.695472,-0.2905124 -0.695472,-0.6487693 0,-0.358518 0.311302,-0.6490186 0.695472,-0.6490186 0.3839096,0 0.6952046,0.2905006 0.6952046,0.6490186 z"
       fill="#292929"
       id="path50-0-5"
       inkscape:connector-curvature="0" />
    <path
       inkscape:export-ydpi="101"
       inkscape:export-xdpi="101"
       inkscape:export-filename="/home/patchon/projects/airspace-hugo/redlin/static/images/logo.png"
       style="isolation:isolate;stroke-width:0.258799"
       d="m 5.2913874,5.310306 c 0,0.3582692 -0.311298,0.649019 -0.6954725,0.649019 -0.3841675,0 -0.6954757,-0.2907498 -0.6954757,-0.649019 0,-0.3585063 0.3113082,-0.6490186 0.6954757,-0.6490186 0.3841745,0 0.6954725,0.2905123 0.6954725,0.6490186 z"
       fill="#292929"
       id="path48-1-3"
       inkscape:connector-curvature="0" />
  </g>
</svg>
