<?xml version="1.0" encoding="UTF-8" standalone="no"?>
<svg
   xmlns:dc="http://purl.org/dc/elements/1.1/"
   xmlns:cc="http://creativecommons.org/ns#"
   xmlns:rdf="http://www.w3.org/1999/02/22-rdf-syntax-ns#"
   xmlns:svg="http://www.w3.org/2000/svg"
   xmlns="http://www.w3.org/2000/svg"
   xmlns:sodipodi="http://sodipodi.sourceforge.net/DTD/sodipodi-0.dtd"
   xmlns:inkscape="http://www.inkscape.org/namespaces/inkscape"
   sodipodi:docname="logo-no-text.svg"
   inkscape:version="1.0rc1 (09960d6f05, 2020-04-09)"
   id="svg31"
   version="1.1"
   viewBox="0 0 13.758343 13.493757"
   height="51"
   width="52">
  <defs
     id="defs25" />
  <sodipodi:namedview
     units="px"
     inkscape:window-maximized="0"
     inkscape:window-y="23"
     inkscape:window-x="26"
     inkscape:window-height="974"
     inkscape:window-width="1530"
     inkscape:snap-page="false"
     showgrid="false"
     inkscape:document-rotation="0"
     inkscape:current-layer="layer1"
     inkscape:document-units="mm"
     inkscape:cy="24.660636"
     inkscape:cx="11.601135"
     inkscape:zoom="10.73553"
     inkscape:pageshadow="2"
     inkscape:pageopacity="0.0"
     borderopacity="1.0"
     bordercolor="#666666"
     pagecolor="#ffffff"
     id="base" />
  <metadata
     id="metadata28">
    <rdf:RDF>
      <cc:Work
         rdf:about="">
        <dc:format>image/svg+xml</dc:format>
        <dc:type
           rdf:resource="http://purl.org/dc/dcmitype/StillImage" />
        <dc:title></dc:title>
      </cc:Work>
    </rdf:RDF>
  </metadata>
  <g
     id="layer1"
     inkscape:groupmode="layer"
     inkscape:label="Layer 1">
    <path
       d="M 12.067854,0.03261293 H 1.7521584 c -0.90457837,0 -1.63804077,0.68726361 -1.63804077,1.53500937 v 9.6659687 c 0,0.847759 0.7334624,1.535021 1.63804077,1.535021 H 12.067854 c 0.904742,0 1.638201,-0.687262 1.638201,-1.535021 V 1.5676223 c 0,-0.84774576 -0.733459,-1.53500937 -1.638201,-1.53500937 z"
       fill="rgb(55,53,53)"
       id="path110-5"
       inkscape:connector-curvature="0"
       style="isolation:isolate;fill:#000000;stroke-width:0.150997"
       inkscape:export-filename="/home/patchon/projects/airspace-hugo/redlin/static/images/logo.png"
       inkscape:export-xdpi="101"
       inkscape:export-ydpi="101" />
    <path
       d="m 3.4343408,12.007384 c 0.023075,-0.551331 0.1990411,-1.058514 0.5149154,-1.524485 0.028405,-0.04169 0.061624,-0.081 0.096252,-0.118546 0.1594213,-0.173203 0.2573796,-0.19951 0.4876205,-0.110339 0.4996336,0.193369 0.9460726,0.473425 1.3840876,0.764582 0.226807,0.150694 0.456889,0.300368 0.61444,0.523861 0.04945,0.07011 0.116989,0.08168 0.207462,0.07057 0.116045,-0.01438 0.236328,0.0033 0.353784,-0.0046 0.06535,-0.0046 0.156301,-0.01665 0.188437,-0.05778 0.233513,-0.29873 0.556101,-0.497514 0.878681,-0.691471 0.33959,-0.204051 0.689319,-0.395664 1.047782,-0.568879 0.315875,-0.152732 0.444408,-0.119845 0.635964,0.152312 0.7231727,1.027385 0.7206717,2.113825 0.0046,3.145446 -0.02869,0.04137 -0.06599,0.0777 -0.100626,0.115334 -0.112516,0.122374 -0.248231,0.16081 -0.40968,0.09474 -0.115279,-0.04721 -0.236632,-0.08618 -0.342084,-0.148465 -0.442441,-0.261491 -0.884201,-0.524292 -1.316444,-0.800111 -0.134155,-0.08564 -0.246153,-0.206963 -0.351915,-0.324769 -0.07645,-0.08541 -0.14476,-0.12628 -0.26986,-0.101163 -0.10031,0.02018 -0.211989,0.01483 -0.313849,-0.0033 -0.10077,-0.01778 -0.157861,0.01462 -0.223688,0.0785 -0.151152,0.146385 -0.300589,0.298247 -0.472023,0.421898 -0.436609,0.314966 -0.899895,0.59356 -1.3999956,0.813099 -0.3585062,0.157363 -0.4779952,0.1293 -0.6948199,-0.181003 C 3.6265872,13.08553 3.4540634,12.569568 3.4342519,12.007565 Z"
       fill="#fefefe"
       id="path112-9"
       inkscape:connector-curvature="0"
       style="isolation:isolate;stroke-width:0.150997"
       inkscape:export-filename="/home/patchon/projects/airspace-hugo/redlin/static/images/logo.png"
       inkscape:export-xdpi="101"
       inkscape:export-ydpi="101" />
    <path
       d="m 11.993293,2.4723854 v 0 c -1.200802,-1.1251736 -3.1658007,-1.1251736 -4.3666007,0 L 6.9100813,3.1438578 6.1934663,2.4723854 c -1.200797,-1.1251736 -3.1657862,-1.1251736 -4.366593,0 v 0 c -1.20079777,1.1251735 -1.20079777,2.9663969 0,4.0915696 l 2.8678554,2.6872238 c 0.0106,0.01023 0.02044,0.02072 0.03119,0.03081 v 0 c 0.6007076,0.562722 1.3923506,0.8854512 2.1841546,0.8851562 0.791637,2.04e-4 1.583441,-0.3224342 2.184155,-0.8851572 v 0 c 0.01082,-0.01025 0.02061,-0.02062 0.03119,-0.03081 L 11.993268,6.563955 c 1.200804,-1.1251727 1.200804,-2.9663963 0,-4.0915697 z"
       fill="#fefefe"
       id="path116-2"
       inkscape:connector-curvature="0"
       style="isolation:isolate;stroke-width:0.150997"
       inkscape:export-filename="/home/patchon/projects/airspace-hugo/redlin/static/images/logo.png"
       inkscape:export-xdpi="101"
       inkscape:export-ydpi="101" />
    <path
       d="M 6.9100813,7.6642827 5.4161743,6.6776719 6.9100813,5.8978871 8.4039863,6.6776719 Z"
       fill="#dfa133"
       id="path120-7"
       inkscape:connector-curvature="0"
       style="isolation:isolate;stroke-width:0.150997"
       inkscape:export-filename="/home/patchon/projects/airspace-hugo/redlin/static/images/logo.png"
       inkscape:export-xdpi="101"
       inkscape:export-ydpi="101" />
    <path
       d="M 8.4039863,6.6776719 6.9100813,5.8978871 5.4161743,6.6776719 Z"
       fill="#fdbf32"
       id="path122-8"
       inkscape:connector-curvature="0"
       style="isolation:isolate;stroke-width:0.150997"
       inkscape:export-filename="/home/patchon/projects/airspace-hugo/redlin/static/images/logo.png"
       inkscape:export-xdpi="101"
       inkscape:export-ydpi="101" />
    <path
       d="m 9.4992193,13.413156 c -0.06959,-0.02673 -0.135087,-0.052 -0.178449,-0.07748 -0.444101,-0.262519 -0.877596,-0.520496 -1.302822,-0.791773 -0.08157,-0.05222 -0.16831,-0.145437 -0.257227,-0.244688 -0.04398,-0.04894 -0.154894,-0.172466 -0.342706,-0.231805 0.106699,-0.03047 0.227587,-0.08825 0.315724,-0.200834 0.189681,-0.242491 0.489337,-0.422707 0.753894,-0.581591 0.341146,-0.204913 0.680736,-0.389376 1.009402,-0.548114 0.0076,-0.0033 0.01441,-0.0068 0.02106,-0.01024 0.0032,0.0046 0.0066,0.0091 0.01003,0.01394 0.6188107,0.87932 0.6198997,1.776039 0.0032,2.664863 -0.0039,0.0056 -0.0082,0.01024 -0.01247,0.01495 -0.0065,-0.0023 -0.01276,-0.0046 -0.01919,-0.008 z M 4.4199146,13.369426 C 4.1419432,12.97201 3.9971844,12.545498 3.9776885,12.065934 c 0.022149,-0.463196 0.166597,-0.885461 0.4414449,-1.290629 0.00913,-0.01359 0.021666,-0.02934 0.038053,-0.04792 0.4606383,0.182267 0.8768159,0.448435 1.2641309,0.70598 l 0.01796,0.01199 c 0.199511,0.132421 0.371723,0.246874 0.476859,0.395959 0.07892,0.111701 0.186095,0.191183 0.312292,0.234152 -0.142731,0.05222 -0.232424,0.139149 -0.269864,0.175548 l -0.05476,0.05335 c -0.124936,0.121752 -0.242875,0.236783 -0.366108,0.325656 -0.445657,0.3217 -0.875096,0.57135 -1.3131106,0.763564 -0.02653,0.01169 -0.048683,0.02095 -0.066921,0.02808 -0.010597,-0.01407 -0.023254,-0.03128 -0.037738,-0.05224 z"
       fill="rgb(235,235,236)"
       id="path114-9"
       inkscape:connector-curvature="0"
       style="isolation:isolate;fill:#cc0000;fill-opacity:1;stroke-width:0.150997"
       inkscape:export-filename="/home/patchon/projects/airspace-hugo/redlin/static/images/logo.png"
       inkscape:export-xdpi="101"
       inkscape:export-ydpi="101" />
    <path
       inkscape:connector-curvature="0"
       id="path50-0-5"
       fill="#292929"
       d="m 10.145262,4.8841995 c 0,0.3582569 -0.3112967,0.6487693 -0.6952067,0.6487693 -0.38417,0 -0.695472,-0.2905124 -0.695472,-0.6487693 0,-0.358518 0.311302,-0.6490186 0.695472,-0.6490186 0.38391,0 0.6952067,0.2905006 0.6952067,0.6490186 z"
       style="isolation:isolate;stroke-width:0.258799"
       inkscape:export-filename="/home/patchon/projects/airspace-hugo/redlin/static/images/logo.png"
       inkscape:export-xdpi="101"
       inkscape:export-ydpi="101" />
    <path
       inkscape:connector-curvature="0"
       id="path48-1-3"
       fill="#292929"
       d="m 5.0086763,4.8666852 c 0,0.3582692 -0.3112976,0.649019 -0.6954721,0.649019 -0.3841675,0 -0.6954757,-0.2907498 -0.6954757,-0.649019 0,-0.3585063 0.3113082,-0.6490186 0.6954757,-0.6490186 0.3841745,0 0.6954721,0.2905123 0.6954721,0.6490186 z"
       style="isolation:isolate;stroke-width:0.258799"
       inkscape:export-filename="/home/patchon/projects/airspace-hugo/redlin/static/images/logo.png"
       inkscape:export-xdpi="101"
       inkscape:export-ydpi="101" />
  </g>
</svg>
